<?xml version="1.0" standalone="no"?>
<!DOCTYPE svg PUBLIC "-//W3C//DTD SVG 20010904//EN"
 "http://www.w3.org/TR/2001/REC-SVG-20010904/DTD/svg10.dtd">
<svg version="1.0" xmlns="http://www.w3.org/2000/svg"
 width="1309.000000pt" height="1309.000000pt" viewBox="0 0 1309.000000 1309.000000"
 preserveAspectRatio="xMidYMid meet">
<metadata>
Created by potrace 1.11, written by Peter Selinger 2001-2013
</metadata>
<g transform="translate(0.000000,1309.000000) scale(0.100000,-0.100000)"
fill="#000000" stroke="none">
<path d="M6230 12164 c-404 -24 -814 -89 -1157 -183 -1953 -537 -3437 -2021
-3974 -3974 -77 -282 -129 -572 -166 -927 -12 -123 -17 -257 -17 -525 0 -268
5 -402 17 -525 50 -486 131 -858 276 -1281 571 -1661 1849 -2939 3510 -3510
423 -145 795 -226 1281 -276 232 -24 818 -24 1050 0 486 50 858 131 1281 276
1661 571 2939 1849 3510 3510 145 423 226 795 276 1281 24 232 24 818 0 1050
-50 486 -131 858 -276 1281 -571 1661 -1849 2939 -3510 3510 -421 145 -804
227 -1271 274 -148 15 -689 27 -830 19z m1180 -2172 c28 -28 31 -29 177 -35
631 -27 1314 -242 1843 -581 290 -185 572 -419 768 -636 112 -124 159 -210
175 -325 60 -413 -373 -727 -745 -540 -27 14 -46 21 -43 15 3 -5 36 -49 73
-99 96 -128 185 -275 265 -436 39 -77 71 -141 72 -143 2 -2 29 4 60 14 125 36
248 -15 311 -128 25 -45 29 -64 29 -128 0 -65 -4 -82 -31 -130 -35 -62 -102
-114 -168 -131 l-41 -10 22 -132 c13 -76 26 -201 30 -294 3 -90 8 -163 11
-163 2 0 29 16 60 35 98 60 163 78 284 78 l108 1 -6 70 c-42 559 -184 1030
-444 1469 -27 47 -50 90 -50 95 0 5 11 17 24 26 25 16 25 16 74 -67 254 -427
413 -916 452 -1392 22 -257 12 -226 83 -262 194 -101 304 -324 267 -542 -33
-197 -179 -359 -374 -416 -179 -52 -402 12 -525 151 -41 47 -51 53 -51 29 0
-55 -126 -387 -210 -555 l-52 -103 27 -49 c104 -192 -42 -413 -261 -395 l-64
5 -172 -172 c-113 -112 -218 -206 -303 -269 l-130 -97 3 -98 c5 -167 -36 -273
-152 -388 -207 -206 -527 -207 -731 0 -159 161 -196 380 -101 597 6 14 -12 12
-128 -12 -144 -29 -330 -49 -479 -50 l-92 0 -28 -59 c-37 -77 -101 -141 -185
-182 -62 -31 -74 -33 -167 -33 -93 0 -105 2 -165 32 -244 120 -305 426 -125
621 63 69 138 109 229 125 36 6 66 14 66 18 0 4 59 271 130 594 72 323 130
595 130 604 0 10 -12 23 -27 30 -16 7 -54 31 -86 52 -38 26 -63 37 -70 31 -7
-5 -167 -135 -357 -289 l-345 -280 0 -65 c0 -54 -5 -72 -30 -114 -44 -71 -110
-109 -189 -109 -130 1 -220 91 -220 220 0 152 145 260 283 212 41 -15 46 -14
66 1 12 9 173 141 358 292 249 203 336 278 331 290 -110 260 -75 481 105 660
81 81 160 127 261 151 66 16 200 16 255 1 22 -6 43 -8 47 -4 4 4 181 353 393
775 l387 767 -54 24 c-188 83 -446 149 -670 172 l-68 6 0 -767 0 -767 -112 4
c-134 4 -180 22 -262 102 -76 74 -835 1114 -884 1211 l-41 80 -1 -620 0 -621
-22 -44 c-13 -24 -40 -58 -61 -74 -37 -30 -44 -31 -148 -34 l-109 -4 0 947 0
947 123 -4 c142 -5 174 -17 249 -95 77 -80 819 -1091 873 -1191 28 -50 53 -92
58 -92 4 0 7 311 7 691 l0 691 100 -4 c91 -3 103 -6 142 -34 64 -45 88 -94 88
-181 0 -40 2 -73 5 -73 3 0 49 -5 103 -11 198 -21 400 -71 589 -145 61 -24
115 -44 120 -44 5 0 32 48 61 106 l53 105 -26 30 c-34 41 -59 131 -51 185 l5
43 -56 21 c-221 83 -480 138 -741 159 l-124 10 -37 -39 c-51 -54 -97 -56 -147
-6 -40 40 -44 75 -15 122 27 44 77 60 124 40 20 -8 40 -23 46 -34 9 -17 25
-20 138 -25 225 -11 462 -57 699 -136 l142 -47 18 29 c24 36 97 84 148 98 136
37 289 -55 327 -194 10 -39 8 -114 -6 -162 -4 -16 7 -28 57 -60 87 -55 236
-173 340 -267 l87 -79 -22 58 c-18 47 -22 79 -22 173 0 125 18 193 71 273 14
21 23 45 20 52 -2 7 -50 46 -105 86 -432 317 -941 527 -1461 603 -178 27 -423
42 -428 27 -2 -7 -14 -24 -27 -39 -19 -22 -32 -27 -70 -27 -40 0 -51 5 -76 33
-75 84 20 209 120 157 18 -9 34 -22 37 -30 4 -9 38 -15 122 -20 685 -40 1305
-262 1836 -658 75 -56 112 -78 121 -71 69 52 131 88 180 105 70 25 210 35 275
21 l45 -10 -80 74 c-339 319 -837 614 -1300 771 -369 125 -789 203 -1093 203
-82 0 -84 0 -116 -35 -43 -45 -98 -49 -145 -9 -26 22 -31 33 -31 71 0 93 105
140 170 75z m-3890 -1387 c0 -75 -4 -104 -20 -134 -24 -48 -70 -87 -118 -101
-23 -6 -197 -10 -447 -10 -376 0 -413 -2 -450 -19 -79 -35 -122 -115 -112
-203 8 -66 39 -112 95 -146 l47 -27 340 -5 c319 -5 344 -7 399 -28 527 -196
521 -921 -9 -1099 l-80 -27 -537 -4 -538 -4 0 92 c0 97 14 146 53 188 54 58
44 57 537 62 444 5 456 6 496 27 169 90 178 322 15 420 l-52 31 -332 4 c-284
4 -340 7 -387 22 -92 30 -147 63 -220 132 -309 292 -168 808 247 908 46 11
167 15 566 15 l507 1 0 -95z m565 84 c52 -15 119 -82 134 -134 7 -27 11 -212
11 -566 0 -594 0 -594 78 -715 50 -77 109 -128 202 -173 74 -35 77 -36 200
-36 124 0 126 0 203 37 122 58 213 161 261 293 7 20 12 245 16 665 l5 635 95
0 c114 0 159 -19 205 -84 l30 -43 0 -586 c0 -658 2 -637 -75 -798 -101 -209
-304 -379 -525 -439 -95 -26 -275 -31 -374 -11 -330 67 -583 323 -647 654 -11
59 -14 202 -14 693 l0 619 78 0 c42 0 95 -5 117 -11z m-1235 -2215 c0 -48 -4
-59 -29 -85 l-29 -29 -242 0 c-261 0 -291 -5 -323 -53 -22 -33 -22 -105 -1
-136 31 -44 69 -51 277 -51 223 0 259 -8 333 -73 65 -57 94 -123 94 -212 -1
-112 -56 -205 -155 -258 -38 -21 -53 -22 -387 -25 l-348 -3 0 50 c0 42 5 56
29 83 l29 33 302 5 302 5 29 33 c41 46 41 108 0 154 l-29 33 -224 5 -225 5
-58 30 c-100 51 -155 142 -155 257 0 130 84 241 208 274 32 9 134 13 325 13
l277 1 0 -56z m832 28 c33 -14 81 -45 113 -73 162 -148 161 -400 -2 -549 -89
-81 -134 -93 -365 -98 l-198 -4 0 -78 c0 -44 -5 -91 -12 -105 -16 -35 -57 -55
-113 -55 l-45 0 0 496 0 495 283 -3 c266 -3 285 -5 339 -26z m506 -438 l-3
-466 -33 -29 c-26 -24 -41 -29 -82 -29 l-50 0 0 466 0 466 29 29 c26 25 37 29
86 29 l56 0 -3 -466z m834 438 c159 -64 259 -243 229 -407 -16 -85 -47 -142
-113 -209 l-58 -58 73 -117 c40 -64 81 -128 91 -143 l18 -28 -100 0 -101 0
-74 118 -74 117 -172 3 -171 2 0 -79 c0 -44 -5 -92 -12 -106 -16 -35 -57 -55
-113 -55 l-45 0 0 496 0 495 283 -3 c266 -3 285 -5 339 -26z m546 -438 l-3
-466 -33 -29 c-26 -24 -41 -29 -82 -29 l-50 0 0 466 0 466 29 29 c26 25 37 29
86 29 l56 0 -3 -466z m862 381 l0 -85 -145 0 -145 0 0 -370 c0 -265 -3 -376
-12 -395 -16 -35 -57 -55 -113 -55 l-45 0 0 410 0 410 -145 0 -145 0 0 85 0
85 375 0 375 0 0 -85z m-2903 -1211 c90 -43 134 -120 141 -243 8 -151 -30
-242 -125 -298 -41 -24 -59 -28 -118 -28 -84 1 -135 24 -187 85 -46 53 -58 98
-58 216 0 83 4 107 24 150 56 120 203 174 323 118z m-1037 -16 c0 -62 -16 -68
-182 -68 -145 0 -150 -1 -173 -25 -24 -23 -25 -29 -25 -165 0 -136 1 -142 25
-165 23 -24 30 -25 140 -25 l115 0 0 70 0 70 -90 0 -90 0 0 32 c0 60 18 68
157 68 l123 0 0 -152 c0 -127 -3 -154 -17 -170 -14 -16 -34 -18 -173 -18 -144
0 -160 2 -200 23 -30 16 -51 37 -67 67 -21 40 -23 56 -23 196 0 163 6 193 48
238 47 50 72 55 260 56 l172 0 0 -32z m505 10 c75 -40 124 -120 125 -199 0
-54 -41 -142 -76 -166 -13 -8 -24 -20 -24 -26 0 -5 23 -46 50 -89 l50 -79 -62
3 -62 3 -40 67 -41 67 -102 1 -103 0 0 -58 c0 -68 -11 -82 -62 -82 l-38 0 0
291 0 291 178 -4 c141 -2 183 -6 207 -20z m847 5 c16 -14 18 -34 18 -181 0
-149 2 -170 21 -210 52 -106 202 -105 253 2 13 28 16 69 16 220 l0 186 28 0
c15 0 38 -7 50 -16 21 -15 22 -20 22 -197 0 -161 -3 -187 -21 -227 -44 -97
-117 -144 -224 -145 -59 0 -78 4 -117 28 -107 63 -128 123 -128 374 l0 183 32
0 c17 0 40 -7 50 -17z m862 6 c59 -16 130 -93 146 -157 17 -72 0 -141 -49
-195 -57 -64 -97 -77 -233 -77 l-118 0 0 -54 c0 -65 -16 -86 -66 -86 l-34 0 0
290 0 290 158 0 c86 0 174 -5 196 -11z"/>
<path d="M9777 8596 c-86 -31 -155 -104 -178 -190 -14 -53 -6 -133 19 -183 43
-84 152 -153 242 -153 53 0 127 30 173 70 81 72 112 173 83 275 -41 141 -205
228 -339 181z"/>
<path d="M8830 8413 c-39 -39 -94 -63 -161 -70 l-60 -6 -50 -98 c-27 -54 -49
-103 -49 -107 0 -5 38 -32 86 -61 114 -70 260 -182 365 -280 l86 -80 166 152
167 152 -58 58 c-31 32 -100 95 -152 139 -96 81 -297 229 -309 227 -3 -1 -17
-12 -31 -26z"/>
<path d="M8087 7298 c-212 -420 -387 -769 -389 -777 -2 -8 4 -16 13 -18 12 -3
510 446 1223 1104 l59 55 -49 50 c-66 67 -181 163 -279 230 -74 52 -181 118
-190 118 -2 0 -177 -343 -388 -762z"/>
<path d="M9344 7754 c-82 -75 -157 -144 -168 -154 -18 -18 -17 -20 28 -76 117
-142 260 -392 327 -568 l31 -83 107 33 c58 19 123 39 145 46 21 6 40 17 41 22
2 6 11 37 19 68 9 31 28 70 42 87 l25 31 -66 137 c-103 216 -220 398 -375 586
-4 4 -74 -54 -156 -129z"/>
<path d="M8473 6955 c-345 -317 -629 -582 -631 -589 -2 -7 5 -22 15 -33 18
-21 19 -20 830 248 l811 269 -20 52 c-33 89 -132 289 -187 378 -62 100 -172
250 -183 250 -4 0 -290 -259 -635 -575z"/>
<path d="M9759 6759 l-147 -50 14 -52 c43 -162 58 -300 58 -530 1 -220 2 -228
21 -232 24 -5 313 -35 337 -35 9 0 21 13 27 33 6 17 28 58 48 91 l36 58 -7
147 c-9 184 -38 418 -62 504 -3 9 -12 17 -20 17 -24 0 -90 37 -122 70 -17 16
-32 30 -34 29 -2 0 -69 -23 -149 -50z"/>
<path d="M8732 6418 l-813 -269 6 -32 c4 -18 8 -33 9 -33 0 -1 370 -41 821
-88 451 -48 829 -88 840 -89 19 -2 20 5 23 163 4 190 -9 338 -43 499 -13 62
-26 115 -27 116 -2 1 -369 -119 -816 -267z"/>
<path d="M7265 6301 c-171 -78 -215 -299 -85 -429 56 -57 105 -77 190 -77 89
0 136 21 194 85 51 56 69 103 69 175 1 152 -112 265 -262 265 -42 0 -81 -7
-106 -19z"/>
<path d="M10450 5949 c-91 -41 -148 -121 -157 -218 -10 -106 37 -197 130 -255
68 -42 164 -48 238 -14 104 48 160 133 161 243 1 112 -62 207 -166 250 -51 22
-152 19 -206 -6z"/>
<path d="M7902 5883 c-5 -16 -13 -35 -17 -44 -5 -13 139 -112 680 -468 377
-248 691 -454 699 -457 31 -12 183 295 249 501 37 115 84 312 76 318 -4 4
-1631 178 -1661 177 -9 0 -21 -12 -26 -27z"/>
<path d="M9641 5623 c-46 -218 -162 -514 -274 -697 l-36 -60 77 -51 77 -52 50
26 c66 33 161 35 223 4 l42 -21 25 42 c67 115 160 349 216 540 38 136 39 141
24 179 -8 21 -18 65 -22 98 -3 33 -11 59 -17 59 -15 0 -271 28 -322 35 l-41 6
-22 -108z"/>
<path d="M7730 5633 c-30 -26 -54 -51 -53 -57 2 -6 144 -330 317 -721 l315
-710 83 4 c79 3 87 6 164 52 99 59 241 167 348 262 88 80 268 285 263 300 -2
8 -1375 919 -1381 916 0 0 -26 -21 -56 -46z"/>
<path d="M7398 5503 c-38 -2 -68 -7 -68 -10 0 -7 -259 -1181 -266 -1204 -3
-10 9 -23 35 -37 60 -34 136 -124 161 -190 13 -31 25 -88 28 -126 l5 -69 166
6 c177 7 291 22 464 63 100 24 112 30 167 77 33 29 60 57 60 62 0 6 -142 330
-314 720 -308 693 -316 710 -343 711 -15 0 -58 -1 -95 -3z"/>
<path d="M9199 4682 c-47 -65 -248 -271 -341 -349 -43 -35 -124 -96 -180 -134
-56 -38 -96 -69 -89 -69 7 0 42 -14 78 -31 84 -40 190 -140 232 -219 l32 -61
52 37 c126 90 251 199 374 322 73 74 133 138 133 144 0 6 -10 18 -23 28 -13
10 -36 42 -52 72 -26 46 -30 63 -30 129 l1 76 -77 51 -77 51 -33 -47z"/>
<path d="M6856 4050 c-41 -13 -85 -58 -98 -102 -14 -49 10 -118 53 -149 119
-84 273 43 210 173 -31 64 -101 97 -165 78z"/>
<path d="M8359 3884 c-60 -18 -131 -81 -159 -141 -33 -69 -32 -161 3 -229 102
-200 374 -200 480 0 16 31 22 58 22 116 0 66 -4 82 -31 130 -65 114 -189 163
-315 124z"/>
<path d="M3230 6155 l0 -205 168 0 c92 0 184 5 206 11 22 6 56 29 81 53 54 54
72 118 54 191 -15 61 -78 128 -134 144 -22 6 -115 11 -207 11 l-168 0 0 -205z"/>
<path d="M4570 6155 l0 -205 168 0 c92 0 184 5 206 11 22 6 56 29 81 53 54 54
72 118 54 191 -15 61 -78 128 -134 144 -22 6 -115 11 -207 11 l-168 0 0 -205z"/>
<path d="M3377 5146 c-75 -27 -97 -69 -97 -185 0 -95 15 -139 59 -170 46 -33
92 -37 143 -12 67 32 83 67 83 183 0 82 -3 101 -21 124 -45 62 -104 82 -167
60z"/>
<path d="M2710 5030 l0 -120 115 0 c113 0 115 0 149 31 64 56 56 145 -16 189
-28 17 -51 20 -140 20 l-108 0 0 -120z"/>
<path d="M4450 5029 l0 -121 119 4 c111 3 121 5 145 27 39 37 52 88 33 134
-26 61 -64 77 -189 77 l-108 0 0 -121z"/>
</g>
</svg>
