<?xml version="1.0" encoding="utf-8"?>
<!-- Generator: Adobe Illustrator 15.1.0, SVG Export Plug-In . SVG Version: 6.00 Build 0)  -->
<!DOCTYPE svg PUBLIC "-//W3C//DTD SVG 1.1//EN" "http://www.w3.org/Graphics/SVG/1.1/DTD/svg11.dtd" [
	<!ENTITY ns_extend "http://ns.adobe.com/Extensibility/1.0/">
	<!ENTITY ns_ai "http://ns.adobe.com/AdobeIllustrator/10.0/">
	<!ENTITY ns_graphs "http://ns.adobe.com/Graphs/1.0/">
	<!ENTITY ns_vars "http://ns.adobe.com/Variables/1.0/">
	<!ENTITY ns_imrep "http://ns.adobe.com/ImageReplacement/1.0/">
	<!ENTITY ns_sfw "http://ns.adobe.com/SaveForWeb/1.0/">
	<!ENTITY ns_custom "http://ns.adobe.com/GenericCustomNamespace/1.0/">
	<!ENTITY ns_adobe_xpath "http://ns.adobe.com/XPath/1.0/">
]>
<svg version="1.1" id="Слой_1" xmlns:x="&ns_extend;" xmlns:i="&ns_ai;" xmlns:graph="&ns_graphs;"
	 xmlns="http://www.w3.org/2000/svg" xmlns:xlink="http://www.w3.org/1999/xlink" x="0px" y="0px" width="595.28px"
	 height="595.28px" viewBox="0 0 595.28 595.28" enable-background="new 0 0 595.28 595.28" xml:space="preserve">
<switch>

	<g i:extraneous="self">
		<g>
			<circle fill="#4a3c4d"  cx="510.264" cy="300.666" r="12.517"/>
			<circle fill="#4a3c4d"  cx="538.801" cy="300.666" r="12.252"/>
			<circle fill="#4a3c4d"  cx="567.333" cy="300.666" r="12.252"/>
			<circle fill="#4a3c4d"  cx="36.144" cy="300.666" r="18.557"/>
			<circle fill="#4a3c4d"  cx="78.448" cy="300.666" r="18.163"/>
			<circle fill="#4a3c4d"  cx="120.75" cy="300.666" r="18.163"/>
			<path fill="#4a3c4d"  d="M488.866,263.712c0-8.512-6.924-15.437-15.436-15.437c-3.762,0-7.21,1.355-9.891,3.599
				c-9.462-5.869-20.3-8.964-31.53-8.964c-3.858,0-7.627,0.38-11.284,1.08c-7.527-13.46-17.788-25.454-29.948-34.989
				c0.976-2.485,1.518-5.187,1.518-8.014c0-12.137-9.874-22.01-22.01-22.01c-7.708,0-14.498,3.986-18.431,10.001
				c-10.617-3.113-21.643-4.71-32.813-4.71c-43.622,0-81.708,24.124-101.639,59.727c-3.665-0.703-7.442-1.084-11.308-1.084
				c-33.05,0-59.936,26.887-59.936,59.936c0,16.336,6.679,31.919,18.402,43.198c-0.827,1.89-1.292,3.972-1.292,6.163
				c0,8.513,6.924,15.438,15.437,15.438c5.263,0,9.915-2.651,12.703-6.685c4.781,1.204,9.708,1.821,14.688,1.821
				c4.668,0,9.207-0.554,13.571-1.568c20.467,33.468,57.356,55.851,99.376,55.851c42.022,0,78.913-22.385,99.38-55.854
				c4.369,1.017,8.914,1.572,13.588,1.572c33.048,0,59.937-26.888,59.937-59.937c0-10.03-2.508-19.856-7.264-28.601
				C487.27,271.483,488.866,267.785,488.866,263.712z M473.431,255.18c4.704,0,8.53,3.828,8.53,8.532
				c0,4.705-3.826,8.531-8.53,8.531c-4.705,0-8.534-3.826-8.534-8.531C464.896,259.008,468.726,255.18,473.431,255.18z
				 M238.999,300.666c0-11.64,2.519-22.696,7.006-32.684c8.16,9.33,13.122,21.524,13.122,34.863c0,12.607-4.43,24.195-11.805,33.306
				C242.005,325.449,238.999,313.404,238.999,300.666z M242.315,341.529c-5.494,5.146-12.078,9.136-19.366,11.586
				c-8.541-15.585-13.403-33.459-13.403-52.449c0-17.487,4.128-34.026,11.45-48.705c7.393,2.168,14.118,5.906,19.793,10.829
				c-5.567,11.456-8.694,24.307-8.694,37.876C232.095,315.428,235.797,329.34,242.315,341.529z M374.016,287.707
				c-5.859-24.946-28.238-43.523-54.974-43.523c-26.719,0-49.09,18.558-54.964,43.484c-2.623-10.015-7.787-19.006-14.746-26.264
				c13.751-24.317,39.837-40.778,69.71-40.778c29.88,0,55.97,16.467,69.719,40.792C381.798,268.683,376.634,277.682,374.016,287.707
				z M337.601,300.666c0,10.248-8.31,18.557-18.559,18.557s-18.558-8.309-18.558-18.557c0-10.249,8.309-18.557,18.558-18.557
				S337.601,290.417,337.601,300.666z M264.614,315.76c6.604,23.864,28.463,41.391,54.428,41.391
				c25.981,0,47.849-17.545,54.439-41.43c2.232,10.154,7.043,19.349,13.714,26.863c-14.109,22.854-39.378,38.124-68.153,38.124
				c-28.769,0-54.032-15.263-68.144-38.11C257.566,335.091,262.376,325.904,264.614,315.76z M378.98,302.846
				c0-13.331,4.955-25.52,13.106-34.847c4.482,9.983,6.998,21.034,6.998,32.667c0,12.731-3.003,24.771-8.314,35.469
				C383.404,327.026,378.98,315.445,378.98,302.846z M405.99,300.666c0-13.564-3.124-26.412-8.688-37.864
				c5.704-4.951,12.469-8.704,19.907-10.87c7.383,14.869,11.329,31.443,11.329,48.734c0,18.987-4.861,36.86-13.399,52.443
				c-7.288-2.453-13.871-6.444-19.362-11.594C402.29,329.33,405.99,315.423,405.99,300.666z M370.285,185.882
				c8.329,0,15.104,6.775,15.104,15.105c0,8.329-6.774,15.104-15.104,15.104c-8.33,0-15.104-6.776-15.104-15.104
				C355.181,192.657,361.955,185.882,370.285,185.882z M319.042,191.173c10.196,0,20.261,1.413,29.971,4.17
				c-0.479,1.802-0.736,3.693-0.736,5.644c0,12.135,9.873,22.01,22.009,22.01c6.815,0,12.916-3.115,16.957-7.995
				c10.908,8.677,19.873,19.092,26.63,30.721c-7.352,2.34-14.095,6.056-19.918,10.854c-15.142-25.627-43.051-42.857-74.912-42.857
				c-31.857,0-59.762,17.225-74.904,42.846c-5.792-4.77-12.494-8.468-19.798-10.808
				C243.323,213.146,278.663,191.173,319.042,191.173z M178.705,360.739c-4.704,0-8.531-3.827-8.531-8.532
				c0-4.704,3.827-8.531,8.531-8.531c4.705,0,8.533,3.827,8.533,8.531C187.237,356.912,183.41,360.739,178.705,360.739z
				 M206.095,355.877c-4.11,0-8.178-0.475-12.138-1.401c0.11-0.742,0.186-1.496,0.186-2.269c0-8.51-6.926-15.436-15.438-15.436
				c-3.806,0-7.289,1.392-9.983,3.684c-9.986-9.929-15.66-23.449-15.66-37.609c0-29.241,23.791-53.031,53.033-53.031
				c2.707,0,5.366,0.206,7.965,0.6c-7.315,15.22-11.417,32.266-11.417,50.251c0,19.581,4.867,38.043,13.444,54.254
				C212.849,355.54,209.511,355.877,206.095,355.877z M319.042,410.161c-38.869,0-73.068-20.36-92.504-50.973
				c7.192-2.618,13.739-6.581,19.352-11.575c15.484,24.043,42.49,39.999,73.153,39.999c30.668,0,57.678-15.961,73.161-40.011
				c5.61,4.995,12.156,8.961,19.347,11.58C392.114,389.798,357.913,410.161,319.042,410.161z M432.01,355.877
				c-3.423,0-6.767-0.338-10.01-0.96c8.576-16.21,13.442-34.671,13.442-54.251c0-17.638-3.83-34.526-11.381-50.254
				c2.594-0.392,5.247-0.597,7.948-0.597c9.723,0,19.107,2.622,27.345,7.593c-0.867,1.927-1.36,4.058-1.36,6.304
				c0,8.511,6.924,15.436,15.437,15.436c1.938,0,3.787-0.375,5.498-1.03c4.003,7.589,6.111,16.071,6.111,24.728
				C485.04,332.088,461.252,355.877,432.01,355.877z"/>
		</g>
	</g>
</switch>
</svg>
